{"title":"London Has Fallen (2016) HQ 1080p Blu-ray x264 DTS-X 7.1 -DDR","uid":14789037,"size":10956217479,"categoryP":"video","categoryS":"hd___movies","magnet":"?xt=urn:btih:6849cec003cb25704137053e1361c10c2dd2d4c9&amp;dn=London+Has+Fallen+%282016%29+HQ+1080p+Blu-ray+x264+DTS-X+7.1+-DDR&amp;tr=udp%3A%2F%2Ftracker.leechers-paradise.org%3A6969&amp;tr=udp%3A%2F%2Fzer0day.ch%3A1337&amp;tr=udp%3A%2F%2Fopen.demonii.com%3A1337&amp;tr=udp%3A%2F%2Ftracker.coppersurfer.tk%3A6969&amp;tr=udp%3A%2F%2Fexodus.desync.com%3A6969","seeders":11,"leechers":19,"uploader":"SaM","files":4,"time":1465044976,"description":"- HollywooD MoviE -\r\n**- London Has Fallen -**\r\n- (2016) -\r\n** HQ 1080p Blu-Ray / x264 / DTS-X 7.1 **\r\nEnglish subtitle(s)\r\n\r\n ~* SCREENSHOTS *~\r\n \nhttp://extraimago.com/image/aZGC \nhttp://extraimago.com/image/aZGB \nhttp://extraimago.com/image/aZG4 \nhttp://extraimago.com/image/aZGe \nhttp://extraimago.com/image/aZGZ \nhttp://extraimago.com/image/aZGK \nhttp://extraimago.com/image/aZGJ \nhttp://extraimago.com/image/aZG0 \nhttp://extraimago.com/image/aZGz \nhttp://extraimago.com/image/aZGU \nhttp://extraimago.com/image/aZGM \nhttp://extraimago.com/image/aZG9 \nhttp://extraimago.com/image/aZG3 \nhttp://extraimago.com/image/aZGb\r\n\r\n[ Specs ]\r\nGeneral\r\nSource = BD50 @ DDR\r\n\r\nFormat : Matroska\r\nFile size : 10.0 GiB\r\nDuration : 1h 38mn\r\nOverall bit rate : 14.6 Mbps\r\n\r\nVideo\r\nFormat : AVC\r\nFormat/Info : Advanced Video Codec\r\nFormat profile :   \r\nFormat settings, CABAC : Yes\r\nBit rate : 10 000 Kbps\r\nHeight : 800 pixels\r\nDisplay aspect ratio : 2.40:1\r\nFrame rate mode : Constant\r\nFrame rate : 23.976 (24000/1001) fps\r\nColor space : YUV\r\nChroma subsampling : 4:2:0\r\nBit depth : 8 bits\r\nScan type : Progressive\r\nBits/(Pixel*Frame) : 0.272\r\nStream size : 6.85 GiB (68%)\r\nLanguage : English\r\n\r\nAudio\r\nFormat : DTS\r\nFormat/Info : Digital Theater Systems\r\nFormat profile : X / MA / Core\r\nMode : 16\r\nFormat settings, Endianness : Big\r\nCodec ID : A_DTS\r\nDuration : 1h 38mn\r\nBit rate mode : Variable / Variable / Constant\r\nBit rate : 4 590 Kbps / 4 590 Kbps / 1 509 Kbps\r\nChannel(s) : Object Based / 8 channels / 6 channels\r\nChannel positions : Object Based / Front: L C R, Side: L R, Back: L R, LFE / Front: L C R, Side: L R, LFE\r\nSampling rate : / 48.0 KHz / 48.0 KHz\r\nFrame rate : 93.750 fps (512 spf)\r\nBit depth : / 24 bits / 24 bits\r\nCompression mode : / Lossless / Lossy\r\nStream size : 3.16 GiB (32%)\r\nLanguage : English\r\nDefault : Yes\r\nForced : No\r\n\r\n\r\nChapters: YES\r\nSample: YES - included","torrent":{"xt":"urn:btih:6849cec003cb25704137053e1361c10c2dd2d4c9","amp;dn":"London+Has+Fallen+%282016%29+HQ+1080p+Blu-ray+x264+DTS-X+7.1+-DDR","amp;tr":["udp%3A%2F%2Ftracker.leechers-paradise.org%3A6969","udp%3A%2F%2Fzer0day.ch%3A1337","udp%3A%2F%2Fopen.demonii.com%3A1337","udp%3A%2F%2Ftracker.coppersurfer.tk%3A6969","udp%3A%2F%2Fexodus.desync.com%3A6969"],"infoHash":"6849cec003cb25704137053e1361c10c2dd2d4c9","infoHashBuffer":{"type":"Buffer","data":[104,73,206,192,3,203,37,112,65,55,5,62,19,97,193,12,45,210,212,201]},"announce":[],"urlList":[]}}